<svg width="24" height="24" viewBox="0 0 24 24" fill="none" xmlns="http://www.w3.org/2000/svg">
<path fill-rule="evenodd" clip-rule="evenodd" d="M19.8456 5.59444C19.8456 5.97635 19.6938 6.34262 19.4238 6.61267C19.1537 6.88272 18.7875 7.03444 18.4056 7.03444C18.0237 7.03444 17.6574 6.88272 17.3873 6.61267C17.1173 6.34262 16.9656 5.97635 16.9656 5.59444C16.9656 5.21253 17.1173 4.84626 17.3873 4.5762C17.6574 4.30615 18.0237 4.15444 18.4056 4.15444C18.7875 4.15444 19.1537 4.30615 19.4238 4.5762C19.6938 4.84626 19.8456 5.21253 19.8456 5.59444ZM12 15.9999C9.79088 15.9999 8.00006 14.2093 8.00006 12C8.00006 9.79069 9.79088 8.00006 12 8.00006C14.2091 8.00006 15.9999 9.79088 15.9999 12C15.9999 14.2091 14.2091 15.9999 12 15.9999ZM12 5.83781C8.59688 5.83781 5.83781 8.59688 5.83781 12C5.83781 15.4031 8.59688 18.1622 12 18.1622C15.4031 18.1622 18.1622 15.4031 18.1622 12C18.1622 8.59688 15.4031 5.83781 12 5.83781ZM12 2.16225L16.8488 2.23219C18.0187 2.28562 18.6544 2.481 19.077 2.64544C19.6371 2.86294 20.037 3.12319 20.457 3.54319C20.877 3.96319 21.1371 4.36256 21.3547 4.92319C21.519 5.346 21.7148 5.98144 21.768 7.15144C21.8258 8.41706 21.8379 8.79637 21.8379 12.0006L21.768 16.8493C21.7146 18.0193 21.5192 18.6549 21.3547 19.0776C21.1372 19.6376 20.877 20.0376 20.457 20.4576C20.037 20.8776 19.6376 21.1376 19.077 21.3553C18.6542 21.5196 18.0187 21.7153 16.8488 21.7686C15.5835 21.8263 15.204 21.8385 12 21.8385C8.796 21.8385 8.41613 21.8263 7.15088 21.7686C5.98088 21.7151 5.34525 21.5197 4.92263 21.3553C4.36256 21.1378 3.96262 20.8776 3.54262 20.4576C3.12262 20.0376 2.86256 19.6382 2.64488 19.0776C2.48062 18.6548 2.28488 18.0193 2.23163 16.8493C2.17388 15.5837 2.16169 15.2044 2.16169 12.0006L2.23163 7.15144C2.28506 5.98144 2.48044 5.34581 2.64488 4.92319C2.86238 4.36312 3.12262 3.96319 3.54262 3.54319C3.96262 3.12319 4.362 2.86313 4.92263 2.64544C5.34544 2.48119 5.98088 2.28544 7.15088 2.23219C8.4165 2.17444 8.79581 2.16225 12 2.16225ZM12 0C8.74125 0 8.3325 0.013875 7.05244 0.0721875C5.775 0.1305 4.90275 0.333375 4.13962 0.63C3.35025 0.936562 2.68125 1.347 2.01412 2.01412C1.347 2.68125 0.936562 3.35062 0.63 4.13962C0.333375 4.90312 0.1305 5.775 0.0721875 7.05244C0.013875 8.3325 0 8.74125 0 12L0.0721875 16.9476C0.130313 18.2248 0.333375 19.0971 0.63 19.8604C0.936562 20.6497 1.347 21.3188 2.01412 21.9859C2.68125 22.653 3.35044 23.0632 4.13962 23.37C4.90275 23.6666 5.77519 23.8695 7.05244 23.9278C8.33231 23.9859 8.74106 24 12 24C15.2589 24 15.6675 23.9861 16.9476 23.9278C18.2248 23.8697 19.0971 23.6666 19.8604 23.37C20.6497 23.0632 21.3188 22.653 21.9859 21.9859C22.653 21.3188 23.0632 20.6496 23.37 19.8604C23.6666 19.0972 23.8695 18.2248 23.9278 16.9476C23.9859 15.6677 24 15.2589 24 12L23.9278 7.05244C23.8697 5.77519 23.6666 4.90294 23.37 4.13962C23.0632 3.35025 22.653 2.68125 21.9859 2.01412C21.3188 1.347 20.6496 0.93675 19.8604 0.63C19.0969 0.333375 18.225 0.1305 16.9476 0.0721875C15.6675 0.013875 15.2587 0 12 0Z" fill="url(#paint0_radial_3_318)"/>
<defs>
<radialGradient id="paint0_radial_3_318" cx="0" cy="0" r="1" gradientUnits="userSpaceOnUse" gradientTransform="translate(3.58331 24.0832) scale(30.666)">
<stop stop-color="#FFB140"/>
<stop offset="0.256" stop-color="#FF5445"/>
<stop offset="0.599" stop-color="#FC2B82"/>
<stop offset="1" stop-color="#8E40B7"/>
</radialGradient>
</defs>
</svg>
