<svg width="24" height="24" viewBox="0 0 24 24" fill="none" xmlns="http://www.w3.org/2000/svg">
<g clip-path="url(#clip0_3_334)">
<path fill-rule="evenodd" clip-rule="evenodd" d="M24 4.36768C23.1038 4.77571 22.1502 5.04365 21.1727 5.16212C22.1897 4.53812 22.9702 3.5485 23.3379 2.36987C22.3854 2.94775 21.3335 3.36812 20.2091 3.5935C19.3132 2.61287 18.0326 2.00012 16.6155 2.00012C13.898 2.00012 11.6936 4.26081 11.6936 7.04893C11.6936 7.44456 11.7358 7.82893 11.8204 8.19887C7.72818 7.98756 4.10061 5.97981 1.66874 2.92168C1.24499 3.66981 1.00236 4.53793 1.00236 5.46268C1.00236 7.21356 1.87161 8.75893 3.19292 9.66493C2.38724 9.64056 1.62636 9.41068 0.961675 9.03493V9.09681C0.961675 11.5437 2.65911 13.585 4.91305 14.0474C4.50055 14.1659 4.06499 14.2251 3.61555 14.2251C3.30437 14.2255 2.9939 14.1955 2.68855 14.1355C3.31536 16.1406 5.13261 17.6011 7.28792 17.6399C5.60305 18.9949 3.47886 19.8023 1.1728 19.8023C0.7753 19.8023 0.382487 19.7792 -0.0020752 19.7329C2.17724 21.163 4.76643 21.9994 7.54574 21.9994C16.6039 21.9994 21.5552 14.3071 21.5552 7.63468C21.5552 7.4165 21.5509 7.19833 21.5424 6.98031C22.505 6.26818 23.3405 5.37981 23.9983 4.36712" fill="#00AAEC"/>
</g>
<defs>
<clipPath id="clip0_3_334">
<rect width="24" height="24" fill="white"/>
</clipPath>
</defs>
</svg>
